<?xml version="1.0" standalone="no"?>
<!DOCTYPE svg PUBLIC "-//W3C//DTD SVG 20010904//EN"
 "http://www.w3.org/TR/2001/REC-SVG-20010904/DTD/svg10.dtd">
<svg version="1.0" xmlns="http://www.w3.org/2000/svg"
 width="916.000000pt" height="1280.000000pt" viewBox="0 0 916.000000 1280.000000"
 preserveAspectRatio="xMidYMid meet">
<metadata>
Created by potrace 1.15, written by Peter Selinger 2001-2017
</metadata>
<g transform="translate(0.000000,1280.000000) scale(0.100000,-0.100000)"
fill="#000000" stroke="none">
<path d="M4435 11769 c-529 -39 -994 -164 -1450 -390 -333 -164 -563 -319
-850 -570 -677 -593 -1145 -1475 -1249 -2360 -9 -73 -21 -170 -26 -214 -23
-185 -5 -611 36 -865 96 -591 311 -1125 649 -1610 28 -41 83 -124 120 -185 37
-60 96 -155 130 -210 54 -87 287 -462 449 -725 29 -47 93 -150 143 -230 49
-80 127 -206 173 -280 46 -74 134 -216 195 -315 61 -99 194 -313 295 -475 100
-162 229 -369 285 -460 56 -91 203 -327 326 -525 287 -463 413 -667 589 -950
78 -126 185 -300 238 -385 125 -203 181 -290 186 -290 2 0 25 35 51 78 26 42
58 93 70 112 12 19 52 82 87 140 36 58 107 173 158 255 51 83 158 255 237 383
122 198 256 415 618 997 93 149 1037 1671 1470 2370 208 336 410 657 450 715
115 168 183 284 271 460 215 431 336 846 390 1339 19 177 16 659 -6 816 -69
511 -206 950 -420 1345 -96 177 -110 201 -196 330 -529 795 -1342 1367 -2266
1594 -162 40 -206 48 -408 75 -279 38 -508 48 -745 30z"/>
</g>
</svg>
